<svg xmlns="http://www.w3.org/2000/svg" xmlns:xlink="http://www.w3.org/1999/xlink" width="500" zoomAndPan="magnify" viewBox="0 0 375 374.999991" height="500" preserveAspectRatio="xMidYMid meet" version="1.0"><defs><clipPath id="42edd8a220"><path d="M 58.230469 58.230469 L 316.980469 58.230469 L 316.980469 316.980469 L 58.230469 316.980469 Z M 58.230469 58.230469 " clip-rule="nonzero"/></clipPath></defs><g clip-path="url(#42edd8a220)"><path fill="#ffffff" d="M 90.699219 58.257812 C 72.945312 58.257812 58.230469 72.976562 58.230469 90.726562 L 58.230469 284.292969 C 58.230469 301.992188 72.617188 316.753906 90.371094 316.753906 L 179.257812 316.753906 C 197.011719 316.753906 211.726562 302.046875 211.726562 284.292969 L 211.726562 256.171875 L 256.152344 256.171875 L 256.152344 273.011719 C 251.425781 274.613281 248.074219 279.207031 248.074219 284.433594 C 248.074219 291.078125 253.351562 296.617188 260.175781 296.574219 C 267.0625 296.527344 272.316406 291.078125 272.316406 284.433594 C 272.316406 279.214844 268.9375 274.59375 264.246094 273.019531 L 264.230469 252.113281 C 264.222656 249.882812 262.40625 248.085938 260.175781 248.089844 L 211.726562 248.089844 L 211.726562 241.070312 C 215.207031 236.988281 216.46875 232.933594 214.441406 227.964844 C 213.882812 226.601562 212.515625 223.761719 213.382812 219.824219 L 252.789062 219.886719 C 254.480469 224.5625 259.011719 227.898438 264.230469 227.898438 C 270.875 227.898438 276.339844 222.523438 276.339844 215.765625 C 276.339844 209.007812 270.988281 203.621094 264.230469 203.664062 C 258.847656 203.695312 254.421875 207.039062 252.734375 211.722656 L 216.488281 211.738281 C 219.183594 206.605469 222.960938 205.558594 224.195312 204.96875 C 226.007812 204.136719 228.480469 202.730469 229.976562 199.605469 C 231.011719 197.472656 231.546875 194.933594 231.777344 191.515625 L 300.585938 191.515625 L 300.585938 220.507812 C 295.878906 222.097656 292.523438 226.703125 292.5 231.921875 C 292.46875 238.820312 297.996094 244.023438 304.640625 244.023438 C 311.285156 244.023438 316.773438 238.757812 316.742188 231.921875 C 316.710938 226.695312 313.328125 222.019531 308.664062 220.53125 L 308.664062 158.636719 C 313.34375 156.949219 316.742188 152.324219 316.742188 147.09375 C 316.742188 140.449219 311.484375 134.964844 304.640625 134.984375 C 297.882812 135 292.5 140.453125 292.5 147.09375 C 292.5 152.3125 295.941406 156.933594 300.617188 158.628906 L 300.585938 183.4375 L 231.769531 183.4375 C 231.539062 180.039062 231.007812 177.515625 229.976562 175.390625 C 228.546875 172.28125 226.007812 170.851562 224.195312 170.019531 C 223.484375 169.515625 219.390625 168.808594 216.488281 163.25 L 252.816406 163.3125 C 254.503906 167.992188 259.003906 171.382812 264.234375 171.335938 C 271.128906 171.273438 276.34375 165.871094 276.34375 159.226562 C 276.34375 152.582031 270.972656 147.09375 264.234375 147.09375 C 258.875 147.09375 254.480469 150.515625 252.785156 155.1875 L 213.394531 155.171875 C 212.660156 151.871094 213.382812 149.71875 214.445312 147.03125 C 216.636719 142.035156 214.957031 137.972656 211.746094 133.847656 L 211.730469 127.121094 L 260.175781 127.121094 C 262.417969 127.128906 264.242188 125.308594 264.234375 123.066406 L 264.261719 101.980469 C 268.9375 100.292969 272.316406 95.785156 272.316406 90.566406 C 272.316406 83.921875 267.105469 78.398438 260.175781 78.433594 C 253.277344 78.460938 248.074219 83.921875 248.074219 90.566406 C 248.074219 95.792969 251.472656 100.402344 256.152344 102.082031 L 256.152344 119.035156 L 211.730469 119.035156 L 211.730469 90.714844 C 211.730469 73.015625 197.3125 58.242188 179.558594 58.242188 L 90.703125 58.257812 Z M 179.554688 82.5 C 184.285156 82.5 187.484375 86.140625 187.484375 90.460938 C 187.484375 104.238281 187.46875 113.585938 187.46875 124.816406 C 181.746094 126.011719 172.539062 121.476562 170.128906 118.546875 C 168.136719 116.640625 167.8125 110.933594 162.703125 108.558594 C 159.898438 106.941406 154.136719 106.605469 151.140625 106.691406 C 151.140625 98.203125 144.300781 90.539062 134.972656 90.578125 C 125.691406 90.625 118.816406 97.855469 118.816406 106.734375 L 118.816406 268.277344 C 118.816406 277.378906 126.089844 284.433594 134.972656 284.433594 C 143.855469 284.433594 151.136719 277.316406 151.207031 268.292969 C 155.632812 268.414062 159.898438 267.871094 162.703125 266.457031 C 165.710938 264.984375 167.28125 262.246094 168.082031 260.359375 C 169.511719 253.621094 183.3125 248.535156 187.484375 250.285156 L 187.484375 284.5625 C 187.484375 288.878906 183.984375 292.519531 179.253906 292.519531 L 90.371094 292.519531 C 86.085938 292.519531 82.46875 289.320312 82.46875 284.5625 C 82.46875 219.597656 82.46875 155.421875 82.46875 90.460938 C 82.46875 85.828125 86.257812 82.5 90.703125 82.5 L 179.558594 82.5 Z M 264.230469 90.578125 C 264.230469 92.636719 262.453125 94.601562 260.175781 94.601562 C 257.894531 94.601562 256.183594 92.574219 256.152344 90.578125 C 258.648438 84.460938 262.050781 87.113281 264.230469 90.578125 Z M 195.1875 130.597656 C 197.988281 130.675781 208.105469 140.5 207.296875 142.992188 C 204.550781 148.476562 203.765625 155.570312 207.609375 163.390625 C 212.039062 175.089844 217.183594 175.0625 222.175781 178.355469 C 224.453125 182.28125 224.246094 194.476562 222.28125 196.757812 C 220.34375 198.214844 212.117188 199.414062 207.617188 211.628906 C 201.992188 222.890625 206.929688 230.28125 207.351562 232.46875 C 207.140625 235.601562 197.394531 244.601562 195.273438 244.386719 C 192.253906 243.625 186.566406 239.125 174.523438 244.3125 C 166.914062 247.121094 162.417969 251.449219 159.855469 258.59375 C 158.867188 260.523438 146.613281 260.832031 142.863281 259.042969 C 141.941406 258.480469 140.808594 253.742188 138.230469 251.171875 C 135.367188 247.800781 131.351562 245.496094 126.902344 244.011719 L 126.902344 219.808594 C 151.488281 239.164062 191.609375 222.621094 191.515625 187.09375 C 191.53125 163.476562 171.867188 147.097656 151.113281 147.113281 C 142.152344 147.082031 133.632812 149.945312 126.902344 155.207031 L 126.976562 131.089844 C 138.320312 127.011719 140.238281 121.210938 142.589844 116.25 C 144.003906 114.273438 156.832031 114.550781 158.957031 115.710938 C 160.683594 116.507812 160.546875 120.132812 165.078125 125.144531 C 176.929688 134.824219 187.886719 134.515625 195.199219 130.605469 Z M 304.636719 143.085938 C 306.914062 143.085938 308.660156 144.988281 308.660156 147.109375 C 308.660156 149.230469 306.914062 151.164062 304.636719 151.164062 C 302.359375 151.164062 300.582031 149.253906 300.582031 147.109375 C 300.582031 144.964844 302.359375 143.085938 304.636719 143.085938 Z M 264.230469 155.1875 C 266.507812 155.1875 268.238281 157.140625 268.261719 159.242188 C 268.277344 161.363281 266.507812 163.265625 264.230469 163.265625 C 262.0625 163.25 260.175781 161.519531 260.175781 159.242188 C 260.175781 156.960938 262.128906 155.1875 264.230469 155.1875 Z M 264.230469 211.75 C 266.507812 211.75 268.246094 213.605469 268.261719 215.773438 C 268.277344 218.050781 266.414062 219.828125 264.230469 219.828125 C 262.046875 219.828125 260.175781 218.050781 260.175781 215.773438 C 260.144531 213.652344 261.953125 211.75 264.230469 211.75 Z M 308.660156 231.933594 C 308.613281 234.101562 306.914062 235.988281 304.636719 235.988281 C 302.359375 235.988281 300.582031 234.035156 300.582031 231.933594 C 300.582031 229.65625 302.492188 227.902344 304.636719 227.902344 C 306.914062 227.902344 308.707031 229.8125 308.660156 231.933594 Z M 260.175781 280.410156 C 262.296875 280.382812 264.230469 282.15625 264.230469 284.433594 C 264.230469 286.714844 262.320312 288.511719 260.175781 288.488281 C 258.007812 288.476562 256.152344 286.714844 256.152344 284.433594 C 256.152344 282.15625 258.074219 280.433594 260.175781 280.410156 Z M 260.175781 280.410156 " fill-opacity="1" fill-rule="nonzero"/></g></svg>